# xmcd
#
# Track frame offsets:
# 150
# 16704
# 49457
# 66345
# 85985
# 105036
# 122920
# 136942
# 157076
# 180822
# 198407
# 214344
# 230584
# 253080
# 279247
#
# Disc length: 3940 seconds
#
#
# Revision: 0
# Processed by: cddbd v1.5.2PL0 Copyright (c) Steve Scherf et al.
# Submitted via: FreeRIP 2.51 
#
DISCID=ce0f620f
DTITLE=Peter Green slinter group - Blues Don't Change
DYEAR=2001
DGENRE=Blues
TTITLE0=I Believe My Time Ain't Long
TTITLE1=Black Magic Woman
TTITLE2=Take Out Some Insurance
TTITLE3=When It All Comes Down
TTITLE4=Honey Bee
TTITLE5=Little Red Rooster
TTITLE6=Don't Start Me Talking
TTITLE7=Nobody Knows You When You're Down Out
TTITLE8=Help Me Through The Day
TTITLE9=Need Your Love So Bag
TTITLE10=Honest I Do
TTITLE11=Albatross
TTITLE12=Blues Don't Change
TTITLE13=Crawlin' King Snake
TTITLE14=The Supernatural
EXTD=
EXTT0=
EXTT1=
EXTT2=
EXTT3=
EXTT4=
EXTT5=
EXTT6=
EXTT7=
EXTT8=
EXTT9=
EXTT10=
EXTT11=
EXTT12=
EXTT13=
EXTT14=
PLAYORDER=
